<svg id="bold" enable-background="new 0 0 32 32" height="512" viewBox="0 0 32 32" width="512" xmlns="http://www.w3.org/2000/svg"><path d="m26 32h-20c-3.314 0-6-2.686-6-6v-20c0-3.314 2.686-6 6-6h20c3.314 0 6 2.686 6 6v20c0 3.314-2.686 6-6 6z" fill="#e3f8fa"/><path d="m20 10.72v-.72c0-1.1-.9-2-2-2h-6.667c-1.1 0-2 .9-2 2v12c0 1.1.9 2 2 2h6.667c1.1 0 2-.9 2-2v-.053c-.4.033-.847.053-1.333.053 0 .367-.3.667-.667.667h-6.667c-.367 0-.667-.3-.667-.667v-12c0-.367.3-.667.667-.667h.333c.367 0 .667.3.667.667s.3.667.667.667h3.333c.367 0 .667-.3.667-.667s.3-.667.667-.667h.333c.367 0 .667.3.667.667v.667c.486 0 .933.02 1.333.053z" fill="#26c6da"/><g fill="#8ce1eb"><path d="m18.667 14.667c-.938 0-4-.096-4-1.333s3.062-1.333 4-1.333 4 .096 4 1.333-3.062 1.333-4 1.333z"/><path d="m22.667 16.333c0 1.237-3.062 1.333-4 1.333s-4-.096-4-1.333v-1.667c0 1.237 3.062 1.333 4 1.333s4-.096 4-1.333z"/><path d="m22.667 19.333c0 1.237-3.062 1.333-4 1.333s-4-.096-4-1.333v-1.667c0 1.237 3.062 1.333 4 1.333s4-.096 4-1.333z"/></g></svg>