<svg id="ab1" xmlns="http://www.w3.org/2000/svg" width="120" height="120" viewBox="0 0 120 120"><defs><style>.cls-1{fill:#07f;}</style></defs><title>top_features</title><path class="cls-1" d="M52.92,64.39a1.42,1.42,0,0,0-1.37,1,10,10,0,0,0-.41,3.4,10,10,0,0,0,.41,3.39,1.42,1.42,0,0,0,1.38,1,1.43,1.43,0,0,0,1.37-1,9.72,9.72,0,0,0,.42-3.37,9.69,9.69,0,0,0-.43-3.4A1.43,1.43,0,0,0,52.92,64.39Z"/><path class="cls-1" d="M77.12,69.65H75.44V73h1.78a2.63,2.63,0,0,0,1.66-.43,1.59,1.59,0,0,0,.54-1.32Q79.41,69.65,77.12,69.65Z"/><path class="cls-1" d="M90.8,62.83a13.2,13.2,0,0,0-7.49-4.73,9,9,0,0,0-7.56-13.85,8.51,8.51,0,0,0-5.84,2.18,18,18,0,0,0-6.59-8.09,18,18,0,0,0-22.8,2.18,17.34,17.34,0,0,0-5.27,12.73q0,.53.07,1.51a15.5,15.5,0,0,0-6.57,5.75,15.7,15.7,0,0,0,2.13,19.62A15.17,15.17,0,0,0,42,84.75H80.25A13.49,13.49,0,0,0,90.8,62.83ZM44.95,75.25H42.23V67.81l0-1.22,0-1.34q-.68.68-.94.89l-1.48,1.19-1.31-1.63,4.14-3.3h2.23Zm11.37-1.44a3.83,3.83,0,0,1-3.4,1.62,3.78,3.78,0,0,1-3.35-1.67,8.83,8.83,0,0,1-1.13-4.93,9,9,0,0,1,1.1-5,4.27,4.27,0,0,1,6.75.07,8.85,8.85,0,0,1,1.14,4.94A9,9,0,0,1,56.32,73.81Zm13.34.89a14.36,14.36,0,0,1-2.33.57,15.2,15.2,0,0,1-2.24.16,5.66,5.66,0,0,1-4.44-1.71,7.11,7.11,0,0,1-1.53-4.91A6.47,6.47,0,0,1,60.89,64a6.76,6.76,0,0,1,4.93-1.74,9.55,9.55,0,0,1,3.81.79l-.91,2.18a6.47,6.47,0,0,0-2.93-.7A3.61,3.61,0,0,0,63,65.67a4.6,4.6,0,0,0-1.06,3.19,5.12,5.12,0,0,0,.86,3.19,3,3,0,0,0,2.49,1.1A8.82,8.82,0,0,0,67,73V70.3H64.56V68h5.1ZM81,74.26a5.49,5.49,0,0,1-3.45,1H72.71V62.4h4a7.71,7.71,0,0,1,4,.78,2.71,2.71,0,0,1,1.23,2.47,3.12,3.12,0,0,1-.54,1.89,2.16,2.16,0,0,1-1.44.89v.09a2.83,2.83,0,0,1,1.76,1,3.32,3.32,0,0,1,.54,2A3.27,3.27,0,0,1,81,74.26Z"/><path class="cls-1" d="M78.62,67.14a1.28,1.28,0,0,0,.5-1.13A1.13,1.13,0,0,0,78.58,65a3.47,3.47,0,0,0-1.71-.32H75.44v2.86H77A2.89,2.89,0,0,0,78.62,67.14Z"/></svg>