<svg xmlns="http://www.w3.org/2000/svg" width="120" height="120" viewBox="0 0 120 120"><defs><style>.cls-1{fill:#07f;}</style></defs><title>top_features</title><g id="ab2"><path class="cls-1" d="M92.55,67a32.1,32.1,0,0,1-5.12,17.55,2.21,2.21,0,0,1-2,1.05H34.53a2.21,2.21,0,0,1-2-1.05A32.47,32.47,0,0,1,30,54.33,32,32,0,0,1,47.36,37a32.27,32.27,0,0,1,25.28,0A32,32,0,0,1,90,54.33,31.81,31.81,0,0,1,92.55,67ZM40,70.26a4.64,4.64,0,1,0-3.29,1.36A4.48,4.48,0,0,0,40,70.26ZM47,54a4.65,4.65,0,1,0-3.29,1.36A4.48,4.48,0,0,0,47,54ZM63.92,68.17,67.59,54.3a2.38,2.38,0,0,0-1.67-2.83,2.17,2.17,0,0,0-1.74.24,2.29,2.29,0,0,0-1.09,1.44L59.42,67a6.9,6.9,0,0,0-3.89,1.58A7,7,0,0,0,54,77.47a6.67,6.67,0,0,0,4.25,3.23,6.8,6.8,0,0,0,5.3-.73,7,7,0,0,0,3-8.5A6.92,6.92,0,0,0,63.92,68.17ZM63.29,47A4.65,4.65,0,1,0,60,48.37,4.48,4.48,0,0,0,63.29,47Zm16.27,7a4.65,4.65,0,1,0-3.29,1.36A4.48,4.48,0,0,0,79.56,54Zm7,16.27a4.64,4.64,0,1,0-3.29,1.36A4.47,4.47,0,0,0,86.54,70.26Z"/></g></svg>
