<svg xmlns="http://www.w3.org/2000/svg" width="120" height="120" viewBox="0 0 120 120"><defs><style>.cls-1{fill:#07f;}</style></defs><title>top_features</title><g id="ab3"><path class="cls-1" d="M71.19,70.63c-11.41,8.6-28.29,15-43.41,13.26,2.86-4.11,4.07-9,1.8-14.47-3.67-8.88-17.18-9.16-20,.57s5.61,13.84,14,15.38a41.86,41.86,0,0,1-10.56,7.29c-1.43.74-.17,2.9,1.26,2.16a41.21,41.21,0,0,0,12.09-9,53,53,0,0,0,5.78.39A66.08,66.08,0,0,0,72.45,72.79C73.72,71.83,72.48,69.66,71.19,70.63ZM18.65,81.75c-6.32-2.37-10.56-11.13-3.24-15.52,5.4-3.24,11.26.46,12.48,6.11a13.09,13.09,0,0,1-2.75,11.17A36.84,36.84,0,0,1,18.65,81.75Z"/><path class="cls-1" d="M110.26,25.33A1.67,1.67,0,0,1,111,27l-6.86,41.14a1.69,1.69,0,0,1-.86,1.21,1.65,1.65,0,0,1-.83.21,1.8,1.8,0,0,1-.64-.13l-12.13-5-6.48,7.9a1.58,1.58,0,0,1-1.31.62,1.45,1.45,0,0,1-.59-.11,1.71,1.71,0,0,1-1.12-1.61V62L103.3,33.61,74.66,58.39,64.08,54A1.7,1.7,0,0,1,63.87,51l44.57-25.71a1.64,1.64,0,0,1,.86-.24A1.66,1.66,0,0,1,110.26,25.33Z"/></g></svg>
