<svg xmlns="http://www.w3.org/2000/svg" width="120" height="120" viewBox="0 0 120 120"><defs><style>.cls-1{fill:#07f;}</style></defs><title>top_features</title><g id="ab4"><path class="cls-1" d="M75.07,80.86a4.7,4.7,0,1,0-3.26-1.38A4.45,4.45,0,0,0,75.07,80.86ZM84.34,56.6a1.08,1.08,0,0,0-.33-.8L77,48.74a1.08,1.08,0,0,0-.8-.33H70.43v9.27H84.34ZM42.61,80.86a4.7,4.7,0,1,0-3.26-1.38A4.45,4.45,0,0,0,42.61,80.86ZM29.39,35.19A2.23,2.23,0,0,1,31,34.5H68.11a2.35,2.35,0,0,1,2.32,2.32v7h5.8a6.29,6.29,0,0,1,3.95,1.63l7.17,7.17a4.92,4.92,0,0,1,.81,1.09,6.57,6.57,0,0,1,.51,1.1,6,6,0,0,1,.24,1.34Q89,57,89,57.36t0,1.38q0,1,0,1.27V71.59a2.35,2.35,0,0,1,2.32,2.32,2.91,2.91,0,0,1-.14,1,1.36,1.36,0,0,1-.49.67l-.6.42a2,2,0,0,1-.85.22l-.81.07q-.22,0-.92,0l-.81,0H84.34a9.27,9.27,0,0,1-18.54,0H51.89a9.27,9.27,0,0,1-9.27,9.27,9.27,9.27,0,0,1-9.27-9.27l-.81,0q-.71,0-.92,0l-.81-.07a2,2,0,0,1-.85-.22l-.6-.42a1.37,1.37,0,0,1-.49-.67,2.93,2.93,0,0,1-.14-1V36.82A2.23,2.23,0,0,1,29.39,35.19Z"/></g></svg>
